<svg width="512" height="512" viewBox="0 0 512 512" fill="none" xmlns="http://www.w3.org/2000/svg">
<rect width="512" height="512" rx="120" fill="url(#paint0_linear_10_3)"/>
<path d="M373.132 173.086L266.382 135.253C259.613 132.846 252.387 132.846 245.618 135.253L138.868 173.086C131.547 175.684 131.547 186.075 138.868 188.674L245.618 226.507C252.387 228.914 259.613 228.914 266.382 226.507L357.653 194.135V274.667C357.653 282.029 363.623 288 370.985 288C378.347 288 384.318 282.029 384.318 274.667V181.714C384.318 178.608 382.723 175.724 380.126 174.159C378.106 172.937 375.602 172.639 373.132 173.086Z" fill="white"/>
<path d="M162.667 221.776V259.043C162.667 312.38 214.288 350.59 252.483 371.303C254.673 372.486 257.327 372.486 259.517 371.303C297.712 350.59 349.333 312.38 349.333 259.043V221.776L275.465 247.962C262.839 252.434 249.161 252.434 236.535 247.962L162.667 221.776Z" fill="white" fill-opacity="0.9"/>
<defs>
<linearGradient id="paint0_linear_10_3" x1="109.5" y1="52" x2="438.5" y2="467.5" gradientUnits="userSpaceOnUse">
<stop stop-color="#818CF8"/>
<stop offset="1" stop-color="#4F46E5"/>
</linearGradient>
</defs>
</svg>
